<?xml version="1.0" standalone="no"?>
<!DOCTYPE svg PUBLIC "-//W3C//DTD SVG 20010904//EN"
 "http://www.w3.org/TR/2001/REC-SVG-20010904/DTD/svg10.dtd">
<svg version="1.0" xmlns="http://www.w3.org/2000/svg"
 width="260.000000pt" height="260.000000pt" viewBox="0 0 260.000000 260.000000"
 preserveAspectRatio="xMidYMid meet">
<metadata>
Created by potrace 1.11, written by Peter Selinger 2001-2013
</metadata>
<g transform="translate(0.000000,260.000000) scale(0.100000,-0.100000)"
fill="#000000" stroke="none">
<path d="M0 1300 l0 -1300 1300 0 1300 0 0 1300 0 1300 -1300 0 -1300 0 0
-1300z m1610 650 c122 -30 237 -89 313 -160 l62 -59 -60 -61 c-33 -34 -81 -80
-108 -102 l-47 -40 -49 45 c-111 104 -256 139 -421 101 -195 -44 -320 -209
-320 -424 0 -215 125 -380 320 -424 164 -38 302 -5 417 98 28 25 55 46 59 46
5 -1 53 -43 108 -94 115 -108 114 -104 14 -185 -80 -65 -185 -116 -290 -141
-114 -27 -292 -27 -408 0 -265 64 -466 255 -536 510 -25 90 -25 290 0 380 69
253 269 445 532 509 112 28 300 28 414 1z"/>
</g>
</svg>
